<svg xmlns="http://www.w3.org/2000/svg" width="200" height="22.717" viewBox="0 0 600 62.717">
  <path d="M35.318,94.58a2.374,2.374,0,0,0,3.17-2.207V38.635a1.95,1.95,0,0,0-.707-1.566C35.007,34.848,28.639,32,20.376,32a51.1,51.1,0,0,0-19.1,3.973A2.153,2.153,0,0,0,0,37.966V92.1a2.6,2.6,0,0,0,3.41,2.349c4.457-1.5,11.518-3.218,16.966-3.218C25.173,91.234,31.554,93.227,35.318,94.58Zm10.867,0c3.764-1.353,10.145-3.346,14.942-3.346,5.448,0,12.508,1.723,16.966,3.218A2.6,2.6,0,0,0,81.5,92.1V37.966a2.139,2.139,0,0,0-1.273-1.993A51.1,51.1,0,0,0,61.127,32c-8.263,0-14.631,2.848-17.4,5.069a1.993,1.993,0,0,0-.707,1.566V92.373A2.378,2.378,0,0,0,46.185,94.58Z" transform="translate(0 -32)" fill="#fea42a"/>
  <text id="backStory"  x="110" y="52" fill="#251f20"  font-size="55">BackStory</text>
</svg>