<svg id="组件_15_1" data-name="组件 15 – 1" xmlns="http://www.w3.org/2000/svg" width="410.195" height="610.25" viewBox="0 0 410.195 610.25">
  <text id="eCook" transform="translate(14.173 487.25)" fill="#251f20" font-size="85" font-family="SegoeUI, Segoe UI"><tspan x="65.531" y="92">eCook</tspan></text>
  <path id="路径_4" data-name="路径 4" d="M0,179.46a76.931,76.931,0,0,0,76.912,76.912h35.812a51.237,51.237,0,0,1,47.509-32.046,43.991,43.991,0,0,1,4.647.24,51.277,51.277,0,0,1,80.437,0,45.128,45.128,0,0,1,4.647-.24,51.073,51.073,0,0,1,47.509,32.046h35.812a76.912,76.912,0,0,0,0-153.823H332a61.574,61.574,0,0,0,1.282-12.819,64.1,64.1,0,0,0-112.8-41.66A89.732,89.732,0,0,0,51.274,89.73,94.783,94.783,0,0,0,52.8,106.394,76.917,76.917,0,0,0,0,179.46Zm230.735,76.912a25.637,25.637,0,0,0-51.274,0c0,.8.08,1.682.08,2.484-.561-.641-1.122-1.282-1.682-1.843a25.663,25.663,0,1,0-36.293,36.293c.561.561,1.2,1.122,1.843,1.682-.8-.08-1.682-.08-2.484-.08a25.637,25.637,0,0,0,0,51.274c.8,0,1.682-.08,2.484-.08a18.353,18.353,0,0,0-1.843,1.682,25.663,25.663,0,0,0,36.293,36.293c.561-.561,1.122-1.2,1.682-1.843-.08.8-.08,1.682-.08,2.484a25.637,25.637,0,0,0,51.274,0c0-.8-.08-1.682-.08-2.484a18.354,18.354,0,0,0,1.682,1.843,25.663,25.663,0,0,0,36.293-36.293c-.561-.561-1.2-1.122-1.843-1.682.8.08,1.682.08,2.484.08a25.637,25.637,0,0,0,0-51.274c-.8,0-1.682.08-2.484.08a18.366,18.366,0,0,0,1.843-1.682,25.663,25.663,0,0,0-36.293-36.293c-.561.561-1.122,1.2-1.682,1.843C230.735,258.054,230.735,257.173,230.735,256.372ZM38.456,358.92A38.456,38.456,0,1,0,0,320.465,38.466,38.466,0,0,0,38.456,358.92Zm333.283,0a38.456,38.456,0,1,0-38.456-38.456A38.466,38.466,0,0,0,371.739,358.92Z" fill="#251f20"/>
</svg>
