<svg id="组件_16_1" data-name="组件 16 – 1" xmlns="http://www.w3.org/2000/svg" width="110" height="107.25" viewBox="0 0 370 367.25">
  <text id="eCook" transform="translate(0 244.25)" fill="#251f20" font-size="75" font-family="SegoeUI, Segoe UI"><tspan x="79.586" y="81">eCook</tspan></text>
  <path id="路径_4" data-name="路径 4" d="M0,87.138a37.355,37.355,0,0,0,37.345,37.345H54.734A24.879,24.879,0,0,1,77.8,108.923a21.36,21.36,0,0,1,2.256.117,24.9,24.9,0,0,1,39.057,0,21.911,21.911,0,0,1,2.256-.117,24.8,24.8,0,0,1,23.068,15.56h17.389a37.345,37.345,0,0,0,0-74.69h-.622a29.9,29.9,0,0,0,.622-6.224,31.122,31.122,0,0,0-54.772-20.228A43.57,43.57,0,0,0,24.9,43.569a46.023,46.023,0,0,0,.739,8.091A37.347,37.347,0,0,0,0,87.138Zm112.035,37.345a12.448,12.448,0,0,0-24.9,0c0,.389.039.817.039,1.206-.272-.311-.545-.622-.817-.895a12.461,12.461,0,0,0-17.622,17.622c.272.272.584.545.895.817-.389-.039-.817-.039-1.206-.039a12.448,12.448,0,0,0,0,24.9c.389,0,.817-.039,1.206-.039a8.912,8.912,0,0,0-.895.817A12.461,12.461,0,0,0,86.36,186.491c.272-.272.545-.584.817-.895-.039.389-.039.817-.039,1.206a12.448,12.448,0,0,0,24.9,0c0-.389-.039-.817-.039-1.206a8.913,8.913,0,0,0,.817.895,12.461,12.461,0,1,0,17.622-17.622c-.272-.272-.584-.545-.895-.817.389.039.817.039,1.206.039a12.448,12.448,0,0,0,0-24.9c-.389,0-.817.039-1.206.039a8.918,8.918,0,0,0,.895-.817,12.461,12.461,0,0,0-17.622-17.622c-.272.272-.545.584-.817.895C112.035,125.3,112.035,124.872,112.035,124.483ZM18.672,174.276A18.672,18.672,0,1,0,0,155.6,18.677,18.677,0,0,0,18.672,174.276Zm161.828,0A18.672,18.672,0,1,0,161.828,155.6,18.677,18.677,0,0,0,180.5,174.276Z" transform="translate(85.414)" fill="#251f20"/>
</svg>
