<svg xmlns="http://www.w3.org/2000/svg" width="74.419" height="74.448" viewBox="0 0 260 74.448">
  <path id = 'eCook' d="M0,32.558A13.957,13.957,0,0,0,13.954,46.512h6.5A9.3,9.3,0,0,1,29.07,40.7a7.981,7.981,0,0,1,.843.044,9.3,9.3,0,0,1,14.593,0,8.187,8.187,0,0,1,.843-.044,9.266,9.266,0,0,1,8.619,5.814h6.5a13.954,13.954,0,0,0,0-27.907h-.233a11.171,11.171,0,0,0,.233-2.326A11.628,11.628,0,0,0,40,8.721,16.279,16.279,0,0,0,9.3,16.279,17.2,17.2,0,0,0,9.579,19.3,13.954,13.954,0,0,0,0,32.558ZM41.861,46.512a4.651,4.651,0,0,0-9.3,0c0,.145.015.305.015.451-.1-.116-.2-.233-.305-.334a4.656,4.656,0,0,0-6.584,6.584c.1.1.218.2.334.305-.145-.015-.305-.015-.451-.015a4.651,4.651,0,1,0,0,9.3c.145,0,.305-.015.451-.015a3.33,3.33,0,0,0-.334.305,4.656,4.656,0,0,0,6.584,6.584c.1-.1.2-.218.305-.334-.015.145-.015.305-.015.451a4.651,4.651,0,0,0,9.3,0c0-.145-.015-.305-.015-.451a3.33,3.33,0,0,0,.305.334A4.656,4.656,0,0,0,48.736,63.1c-.1-.1-.218-.2-.334-.305.145.015.305.015.451.015a4.651,4.651,0,1,0,0-9.3c-.145,0-.305.015-.451.015a3.331,3.331,0,0,0,.334-.305,4.656,4.656,0,0,0-6.584-6.584c-.1.1-.2.218-.305.334C41.861,46.817,41.861,46.657,41.861,46.512ZM6.977,65.117A6.977,6.977,0,1,0,0,58.14,6.979,6.979,0,0,0,6.977,65.117Zm60.465,0a6.977,6.977,0,1,0-6.977-6.977A6.979,6.979,0,0,0,67.442,65.117Z" fill="#251f20"/>
  <text id="eCook"  x="105" y="55" fill="#251f20"  font-size="55" font-family="SegoeUI, Segoe UI">eCook</text>
</svg>